<?xml version="1.0" standalone="no"?>
<svg xmlns:xlink="http://www.w3.org/1999/xlink" id="wave" style="transform:rotate(0deg); transition: 0.3s" viewBox="0 0 1440 490" version="1.1" xmlns="http://www.w3.org/2000/svg"><defs><linearGradient id="sw-gradient-0" x1="0" x2="0" y1="1" y2="0"><stop stop-color="rgba(69, 196, 214, 1)" offset="0%"/><stop stop-color="rgba(69, 196, 214, 1)" offset="100%"/></linearGradient></defs><path style="transform:translate(0, 0px); opacity:1" fill="url(#sw-gradient-0)" d="M0,98L30,98C60,98,120,98,180,147C240,196,300,294,360,294C420,294,480,196,540,187.8C600,180,660,261,720,245C780,229,840,114,900,114.3C960,114,1020,229,1080,236.8C1140,245,1200,147,1260,138.8C1320,131,1380,212,1440,236.8C1500,261,1560,229,1620,228.7C1680,229,1740,261,1800,253.2C1860,245,1920,196,1980,155.2C2040,114,2100,82,2160,106.2C2220,131,2280,212,2340,212.3C2400,212,2460,131,2520,89.8C2580,49,2640,49,2700,57.2C2760,65,2820,82,2880,81.7C2940,82,3000,65,3060,81.7C3120,98,3180,147,3240,147C3300,147,3360,98,3420,98C3480,98,3540,147,3600,204.2C3660,261,3720,327,3780,343C3840,359,3900,327,3960,294C4020,261,4080,229,4140,220.5C4200,212,4260,229,4290,236.8L4320,245L4320,490L4290,490C4260,490,4200,490,4140,490C4080,490,4020,490,3960,490C3900,490,3840,490,3780,490C3720,490,3660,490,3600,490C3540,490,3480,490,3420,490C3360,490,3300,490,3240,490C3180,490,3120,490,3060,490C3000,490,2940,490,2880,490C2820,490,2760,490,2700,490C2640,490,2580,490,2520,490C2460,490,2400,490,2340,490C2280,490,2220,490,2160,490C2100,490,2040,490,1980,490C1920,490,1860,490,1800,490C1740,490,1680,490,1620,490C1560,490,1500,490,1440,490C1380,490,1320,490,1260,490C1200,490,1140,490,1080,490C1020,490,960,490,900,490C840,490,780,490,720,490C660,490,600,490,540,490C480,490,420,490,360,490C300,490,240,490,180,490C120,490,60,490,30,490L0,490Z"/></svg>