<?xml version="1.0" standalone="no"?>
<svg xmlns:xlink="http://www.w3.org/1999/xlink" id="wave" style="transform:rotate(180deg); transition: 0.3s" viewBox="0 0 1440 180" version="1.1" xmlns="http://www.w3.org/2000/svg"><defs><linearGradient id="sw-gradient-0" x1="0" x2="0" y1="1" y2="0"><stop stop-color="rgba(69, 196, 214, 1)" offset="0%"/><stop stop-color="rgba(69, 196, 214, 1)" offset="100%"/></linearGradient></defs><path style="transform:translate(0, 0px); opacity:1" fill="url(#sw-gradient-0)" d="M0,54L60,57C120,60,240,66,360,78C480,90,600,108,720,105C840,102,960,78,1080,66C1200,54,1320,54,1440,63C1560,72,1680,90,1800,90C1920,90,2040,72,2160,78C2280,84,2400,114,2520,105C2640,96,2760,48,2880,36C3000,24,3120,48,3240,69C3360,90,3480,108,3600,105C3720,102,3840,78,3960,72C4080,66,4200,78,4320,78C4440,78,4560,66,4680,63C4800,60,4920,66,5040,81C5160,96,5280,120,5400,126C5520,132,5640,120,5760,111C5880,102,6000,96,6120,78C6240,60,6360,30,6480,18C6600,6,6720,12,6840,27C6960,42,7080,66,7200,72C7320,78,7440,66,7560,75C7680,84,7800,114,7920,114C8040,114,8160,84,8280,75C8400,66,8520,78,8580,84L8640,90L8640,180L8580,180C8520,180,8400,180,8280,180C8160,180,8040,180,7920,180C7800,180,7680,180,7560,180C7440,180,7320,180,7200,180C7080,180,6960,180,6840,180C6720,180,6600,180,6480,180C6360,180,6240,180,6120,180C6000,180,5880,180,5760,180C5640,180,5520,180,5400,180C5280,180,5160,180,5040,180C4920,180,4800,180,4680,180C4560,180,4440,180,4320,180C4200,180,4080,180,3960,180C3840,180,3720,180,3600,180C3480,180,3360,180,3240,180C3120,180,3000,180,2880,180C2760,180,2640,180,2520,180C2400,180,2280,180,2160,180C2040,180,1920,180,1800,180C1680,180,1560,180,1440,180C1320,180,1200,180,1080,180C960,180,840,180,720,180C600,180,480,180,360,180C240,180,120,180,60,180L0,180Z"/></svg>