<?xml version="1.0" standalone="no"?>
<svg xmlns:xlink="http://www.w3.org/1999/xlink" id="wave" style="transform:rotate(0deg); transition: 0.3s" viewBox="0 0 1440 160" version="1.1" xmlns="http://www.w3.org/2000/svg"><defs><linearGradient id="sw-gradient-0" x1="0" x2="0" y1="1" y2="0"><stop stop-color="rgba(37, 37, 37, 1)" offset="0%"/><stop stop-color="rgba(37, 37, 37, 1)" offset="100%"/></linearGradient></defs><path style="transform:translate(0, 0px); opacity:1" fill="url(#sw-gradient-0)" d="M0,32L24,37.3C48,43,96,53,144,50.7C192,48,240,32,288,40C336,48,384,80,432,96C480,112,528,112,576,106.7C624,101,672,91,720,85.3C768,80,816,80,864,82.7C912,85,960,91,1008,85.3C1056,80,1104,64,1152,69.3C1200,75,1248,101,1296,106.7C1344,112,1392,96,1440,96C1488,96,1536,112,1584,98.7C1632,85,1680,43,1728,21.3C1776,0,1824,0,1872,24C1920,48,1968,96,2016,120C2064,144,2112,144,2160,120C2208,96,2256,48,2304,29.3C2352,11,2400,21,2448,40C2496,59,2544,85,2592,82.7C2640,80,2688,48,2736,29.3C2784,11,2832,5,2880,2.7C2928,0,2976,0,3024,5.3C3072,11,3120,21,3168,40C3216,59,3264,85,3312,96C3360,107,3408,101,3432,98.7L3456,96L3456,160L3432,160C3408,160,3360,160,3312,160C3264,160,3216,160,3168,160C3120,160,3072,160,3024,160C2976,160,2928,160,2880,160C2832,160,2784,160,2736,160C2688,160,2640,160,2592,160C2544,160,2496,160,2448,160C2400,160,2352,160,2304,160C2256,160,2208,160,2160,160C2112,160,2064,160,2016,160C1968,160,1920,160,1872,160C1824,160,1776,160,1728,160C1680,160,1632,160,1584,160C1536,160,1488,160,1440,160C1392,160,1344,160,1296,160C1248,160,1200,160,1152,160C1104,160,1056,160,1008,160C960,160,912,160,864,160C816,160,768,160,720,160C672,160,624,160,576,160C528,160,480,160,432,160C384,160,336,160,288,160C240,160,192,160,144,160C96,160,48,160,24,160L0,160Z"/></svg>