<?xml version="1.0" standalone="no"?>
<svg xmlns:xlink="http://www.w3.org/1999/xlink" id="wave" style="transform:rotate(180deg); transition: 0.3s" viewBox="0 0 1440 110" version="1.1" xmlns="http://www.w3.org/2000/svg"><defs><linearGradient id="sw-gradient-0" x1="0" x2="0" y1="1" y2="0"><stop stop-color="rgba(37, 37, 37, 1)" offset="0%"/><stop stop-color="rgba(37, 37, 37, 1)" offset="100%"/></linearGradient></defs><path style="transform:translate(0, 0px); opacity:1" fill="url(#sw-gradient-0)" d="M0,88L26.7,80.7C53.3,73,107,59,160,53.2C213.3,48,267,51,320,45.8C373.3,40,427,26,480,29.3C533.3,33,587,55,640,64.2C693.3,73,747,70,800,66C853.3,62,907,59,960,53.2C1013.3,48,1067,40,1120,33C1173.3,26,1227,18,1280,20.2C1333.3,22,1387,33,1440,38.5C1493.3,44,1547,44,1600,38.5C1653.3,33,1707,22,1760,16.5C1813.3,11,1867,11,1920,22C1973.3,33,2027,55,2080,67.8C2133.3,81,2187,84,2240,86.2C2293.3,88,2347,88,2400,77C2453.3,66,2507,44,2560,38.5C2613.3,33,2667,44,2720,45.8C2773.3,48,2827,40,2880,40.3C2933.3,40,2987,48,3040,51.3C3093.3,55,3147,55,3200,62.3C3253.3,70,3307,84,3360,77C3413.3,70,3467,40,3520,25.7C3573.3,11,3627,11,3680,14.7C3733.3,18,3787,26,3813,29.3L3840,33L3840,110L3813.3,110C3786.7,110,3733,110,3680,110C3626.7,110,3573,110,3520,110C3466.7,110,3413,110,3360,110C3306.7,110,3253,110,3200,110C3146.7,110,3093,110,3040,110C2986.7,110,2933,110,2880,110C2826.7,110,2773,110,2720,110C2666.7,110,2613,110,2560,110C2506.7,110,2453,110,2400,110C2346.7,110,2293,110,2240,110C2186.7,110,2133,110,2080,110C2026.7,110,1973,110,1920,110C1866.7,110,1813,110,1760,110C1706.7,110,1653,110,1600,110C1546.7,110,1493,110,1440,110C1386.7,110,1333,110,1280,110C1226.7,110,1173,110,1120,110C1066.7,110,1013,110,960,110C906.7,110,853,110,800,110C746.7,110,693,110,640,110C586.7,110,533,110,480,110C426.7,110,373,110,320,110C266.7,110,213,110,160,110C106.7,110,53,110,27,110L0,110Z"/></svg>